# xmcd
#
# Track frame offsets:
#	150
#	18475
#	29715
#	45497
#	64605
#	75735
#	91257
#	106072
#	117532
#	129980
#	144055
#	160185
#
# Disc length: 2360 seconds
#
# Revision: 0
# Processed by: cddbd v1.5.1PL0 Copyright (c) Steve Scherf et al.
# Submitted via: dBpowerAMP V4.0
#
DISCID=9109360c
DTITLE=Peter Denahy - Dyamberin
DYEAR=1993
DGENRE=Country
TTITLE0=Dyamberin
TTITLE1=Down To Earth
TTITLE2=Lazy Country Sunday
TTITLE3=Six Morton Street
TTITLE4=Grandpa Was A Telegraphist
TTITLE5=Dookie Swing
TTITLE6=They Were Different Days, Said Jim
TTITLE7=Lachie's Brumby
TTITLE8=Welcome Along To The T.A.B.
TTITLE9=Former Drover
TTITLE10=Will You Help Me Burn A Dead Cow, Missus?
TTITLE11=The Mountain Land
EXTD=
EXTT0=
EXTT1=
EXTT2=
EXTT3=
EXTT4=
EXTT5=
EXTT6=
EXTT7=
EXTT8=
EXTT9=
EXTT10=
EXTT11=
PLAYORDER=
